# xmcd
#
# Track frame offsets:
#	150
#	1474
#	9469
#	23983
#	37454
#	43333
#	52943
#	69664
#	75423
#	90737
#	101699
#	107039
#	111584
#	125789
#	133342
#	139166
#	149979
#
# Disc length: 2223 seconds
#
# Revision: 1
# Processed by: cddbd v1.5.2PL0 Copyright (c) Steve Scherf et al.
# Submitted via: audiograbber 1.83.01
#
DISCID=0708ad11
DTITLE=Trigger the Bloodshed - Purgation
DYEAR=2008
DGENRE=Death Metal
TTITLE0=Inception
TTITLE1=Merciless ignorance
TTITLE2=Laceration
TTITLE3=Rebirth
TTITLE4=The defield
TTITLE5=Severed
TTITLE6=Impregnable miscreation
TTITLE7=Hollow
TTITLE8=Lovers
TTITLE9=Mortuary walls
TTITLE10=Violent elucidation
TTITLE11=A wretched betrayal
TTITLE12=Retribution
TTITLE13=The abortive becoming
TTITLE14=Domicile
TTITLE15=Whited sepulcher
TTITLE16=A perfect casket
EXTD=
EXTT0=
EXTT1=
EXTT2=
EXTT3=
EXTT4=
EXTT5=
EXTT6=
EXTT7=
EXTT8=
EXTT9=
EXTT10=
EXTT11=
EXTT12=
EXTT13=
EXTT14=
EXTT15=
EXTT16=
PLAYORDER=
